<?xml version="1.0" encoding="UTF-8" standalone="no"?>
<!DOCTYPE svg PUBLIC "-//W3C//DTD SVG 1.1//EN"
 "http://www.w3.org/Graphics/SVG/1.1/DTD/svg11.dtd">
<!-- Generated by graphviz version 2.47.1 (20210417.1919)
 -->
<!-- Title: G Pages: 1 -->
<svg width="2348pt" height="1311pt"
 viewBox="0.00 0.00 2348.20 1310.84" xmlns="http://www.w3.org/2000/svg" xmlns:xlink="http://www.w3.org/1999/xlink">
<g id="graph0" class="graph" transform="scale(1 1) rotate(0) translate(21.6 1289.24)">
<title>G</title>
<polygon fill="#111111" stroke="transparent" points="-21.6,21.6 -21.6,-1289.24 2326.6,-1289.24 2326.6,21.6 -21.6,21.6"/>
<!-- binding/array.ts -->
<g id="node1" class="node">
<title>binding/array.ts</title>
<path fill="none" stroke="#ff6c60" d="M1225.67,-935.14C1225.67,-935.14 1155.33,-935.14 1155.33,-935.14 1152.17,-935.14 1149,-931.98 1149,-928.81 1149,-928.81 1149,-922.48 1149,-922.48 1149,-919.31 1152.17,-916.14 1155.33,-916.14 1155.33,-916.14 1225.67,-916.14 1225.67,-916.14 1228.83,-916.14 1232,-919.31 1232,-922.48 1232,-922.48 1232,-928.81 1232,-928.81 1232,-931.98 1228.83,-935.14 1225.67,-935.14"/>
<text text-anchor="middle" x="1190.5" y="-923.14" font-family="Arial" font-size="10.00" fill="#ff6c60">binding/array.ts</text>
</g>
<!-- binding/types.ts -->
<g id="node2" class="node">
<title>binding/types.ts</title>
<path fill="none" stroke="#ff6c60" d="M1380.17,-973.14C1380.17,-973.14 1306.83,-973.14 1306.83,-973.14 1303.67,-973.14 1300.5,-969.98 1300.5,-966.81 1300.5,-966.81 1300.5,-960.48 1300.5,-960.48 1300.5,-957.31 1303.67,-954.14 1306.83,-954.14 1306.83,-954.14 1380.17,-954.14 1380.17,-954.14 1383.33,-954.14 1386.5,-957.31 1386.5,-960.48 1386.5,-960.48 1386.5,-966.81 1386.5,-966.81 1386.5,-969.98 1383.33,-973.14 1380.17,-973.14"/>
<text text-anchor="middle" x="1343.5" y="-961.14" font-family="Arial" font-size="10.00" fill="#ff6c60">binding/types.ts</text>
</g>
<!-- binding/array.ts&#45;&gt;binding/types.ts -->
<g id="edge1" class="edge">
<title>binding/array.ts&#45;&gt;binding/types.ts</title>
<path fill="none" stroke="#757575" d="M1232.36,-929.85C1258.08,-935.25 1290.64,-943.65 1313.67,-950.95"/>
<polygon fill="#757575" stroke="#757575" points="1312.62,-954.29 1323.21,-954.1 1314.82,-947.64 1312.62,-954.29"/>
</g>
<!-- specification/index.ts -->
<g id="node3" class="node">
<title>specification/index.ts</title>
<path fill="none" stroke="#ff6c60" d="M1556.67,-631.14C1556.67,-631.14 1461.33,-631.14 1461.33,-631.14 1458.17,-631.14 1455,-627.98 1455,-624.81 1455,-624.81 1455,-618.48 1455,-618.48 1455,-615.31 1458.17,-612.14 1461.33,-612.14 1461.33,-612.14 1556.67,-612.14 1556.67,-612.14 1559.83,-612.14 1563,-615.31 1563,-618.48 1563,-618.48 1563,-624.81 1563,-624.81 1563,-627.98 1559.83,-631.14 1556.67,-631.14"/>
<text text-anchor="middle" x="1509" y="-619.14" font-family="Arial" font-size="10.00" fill="#ff6c60">specification/index.ts</text>
</g>
<!-- binding/array.ts&#45;&gt;specification/index.ts -->
<g id="edge2" class="edge">
<title>binding/array.ts&#45;&gt;specification/index.ts</title>
<path fill="none" stroke="#757575" d="M1232.42,-917.28C1282.41,-905.11 1366.75,-878.04 1419,-825.64 1472.37,-772.12 1496.14,-681.29 1504.39,-641.41"/>
<polygon fill="#757575" stroke="#757575" points="1507.83,-642.07 1506.31,-631.59 1500.96,-640.73 1507.83,-642.07"/>
</g>
<!-- binding/types.ts&#45;&gt;binding/array.ts -->
<g id="edge10" class="edge">
<title>binding/types.ts&#45;&gt;binding/array.ts</title>
<path fill="none" stroke="#757575" d="M1300.3,-959.15C1274.91,-953.77 1243.24,-945.58 1220.63,-938.43"/>
<polygon fill="#757575" stroke="#757575" points="1221.52,-935.04 1210.93,-935.24 1219.33,-941.69 1221.52,-935.04"/>
</g>
<!-- binding/types.ts&#45;&gt;specification/index.ts -->
<g id="edge12" class="edge">
<title>binding/types.ts&#45;&gt;specification/index.ts</title>
<path fill="none" stroke="#757575" d="M1353.13,-954.07C1368.19,-936.98 1399.51,-899.62 1419,-863.64 1461.27,-785.59 1491.45,-683.27 1502.91,-641.1"/>
<polygon fill="#757575" stroke="#757575" points="1506.33,-641.86 1505.53,-631.29 1499.57,-640.05 1506.33,-641.86"/>
</g>
<!-- common/index.ts -->
<g id="node5" class="node">
<title>common/index.ts</title>
<path fill="none" stroke="#c6c5fe" d="M2020.67,-423.14C2020.67,-423.14 1941.33,-423.14 1941.33,-423.14 1938.17,-423.14 1935,-419.98 1935,-416.81 1935,-416.81 1935,-410.48 1935,-410.48 1935,-407.31 1938.17,-404.14 1941.33,-404.14 1941.33,-404.14 2020.67,-404.14 2020.67,-404.14 2023.83,-404.14 2027,-407.31 2027,-410.48 2027,-410.48 2027,-416.81 2027,-416.81 2027,-419.98 2023.83,-423.14 2020.67,-423.14"/>
<text text-anchor="middle" x="1981" y="-411.14" font-family="Arial" font-size="10.00" fill="#c6c5fe">common/index.ts</text>
</g>
<!-- binding/types.ts&#45;&gt;common/index.ts -->
<g id="edge11" class="edge">
<title>binding/types.ts&#45;&gt;common/index.ts</title>
<path fill="none" stroke="#757575" d="M1379.42,-973.22C1477.52,-997.76 1757.67,-1051.34 1899,-906.64 1966.29,-837.75 1977.79,-517.44 1979.65,-433.71"/>
<polygon fill="#757575" stroke="#757575" points="1983.16,-433.59 1979.86,-423.52 1976.16,-433.45 1983.16,-433.59"/>
</g>
<!-- specification/specification.ts -->
<g id="node6" class="node">
<title>specification/specification.ts</title>
<path fill="none" stroke="#cfffac" d="M1892.67,-897.14C1892.67,-897.14 1766.33,-897.14 1766.33,-897.14 1763.17,-897.14 1760,-893.98 1760,-890.81 1760,-890.81 1760,-884.48 1760,-884.48 1760,-881.31 1763.17,-878.14 1766.33,-878.14 1766.33,-878.14 1892.67,-878.14 1892.67,-878.14 1895.83,-878.14 1899,-881.31 1899,-884.48 1899,-884.48 1899,-890.81 1899,-890.81 1899,-893.98 1895.83,-897.14 1892.67,-897.14"/>
<text text-anchor="middle" x="1829.5" y="-885.14" font-family="Arial" font-size="10.00" fill="#cfffac">specification/specification.ts</text>
</g>
<!-- specification/index.ts&#45;&gt;specification/specification.ts -->
<g id="edge98" class="edge">
<title>specification/index.ts&#45;&gt;specification/specification.ts</title>
<path fill="none" stroke="#757575" d="M1528.81,-631.16C1567.81,-651.43 1659.24,-701.75 1724,-759.64 1762.48,-794.04 1798.48,-843.31 1816.49,-869.56"/>
<polygon fill="#757575" stroke="#757575" points="1813.78,-871.79 1822.28,-878.12 1819.58,-867.87 1813.78,-871.79"/>
</g>
<!-- specification/construct.ts -->
<g id="node38" class="node">
<title>specification/construct.ts</title>
<path fill="none" stroke="#ff6c60" d="M1717.67,-631.14C1717.67,-631.14 1605.33,-631.14 1605.33,-631.14 1602.17,-631.14 1599,-627.98 1599,-624.81 1599,-624.81 1599,-618.48 1599,-618.48 1599,-615.31 1602.17,-612.14 1605.33,-612.14 1605.33,-612.14 1717.67,-612.14 1717.67,-612.14 1720.83,-612.14 1724,-615.31 1724,-618.48 1724,-618.48 1724,-624.81 1724,-624.81 1724,-627.98 1720.83,-631.14 1717.67,-631.14"/>
<text text-anchor="middle" x="1661.5" y="-619.14" font-family="Arial" font-size="10.00" fill="#ff6c60">specification/construct.ts</text>
</g>
<!-- specification/index.ts&#45;&gt;specification/construct.ts -->
<g id="edge97" class="edge">
<title>specification/index.ts&#45;&gt;specification/construct.ts</title>
<path fill="none" stroke="#757575" d="M1563.06,-621.64C1571.39,-621.64 1580.13,-621.64 1588.8,-621.64"/>
<polygon fill="#757575" stroke="#757575" points="1588.92,-625.14 1598.92,-621.64 1588.92,-618.14 1588.92,-625.14"/>
</g>
<!-- binding/binding.ts -->
<g id="node4" class="node">
<title>binding/binding.ts</title>
<path fill="none" stroke="#c6c5fe" d="M1082.67,-973.14C1082.67,-973.14 1003.33,-973.14 1003.33,-973.14 1000.17,-973.14 997,-969.98 997,-966.81 997,-966.81 997,-960.48 997,-960.48 997,-957.31 1000.17,-954.14 1003.33,-954.14 1003.33,-954.14 1082.67,-954.14 1082.67,-954.14 1085.83,-954.14 1089,-957.31 1089,-960.48 1089,-960.48 1089,-966.81 1089,-966.81 1089,-969.98 1085.83,-973.14 1082.67,-973.14"/>
<text text-anchor="middle" x="1043" y="-961.14" font-family="Arial" font-size="10.00" fill="#c6c5fe">binding/binding.ts</text>
</g>
<!-- binding/binding.ts&#45;&gt;binding/array.ts -->
<g id="edge3" class="edge">
<title>binding/binding.ts&#45;&gt;binding/array.ts</title>
<path fill="none" stroke="#757575" d="M1080.72,-954.05C1099.66,-949.11 1122.96,-943.02 1143.13,-937.75"/>
<polygon fill="#757575" stroke="#757575" points="1144.26,-941.08 1153.05,-935.16 1142.49,-934.3 1144.26,-941.08"/>
</g>
<!-- binding/binding.ts&#45;&gt;binding/types.ts -->
<g id="edge4" class="edge">
<title>binding/binding.ts&#45;&gt;binding/types.ts</title>
<path fill="none" stroke="#757575" d="M1089.01,-963.64C1142.83,-963.64 1232.76,-963.64 1289.78,-963.64"/>
<polygon fill="#757575" stroke="#757575" points="1290.03,-967.14 1300.03,-963.64 1290.03,-960.14 1290.03,-967.14"/>
</g>
<!-- binding/binding.ts&#45;&gt;common/index.ts -->
<g id="edge5" class="edge">
<title>binding/binding.ts&#45;&gt;common/index.ts</title>
<path fill="none" stroke="#757575" d="M1066.43,-973.18C1176.55,-1018.31 1663.97,-1198.54 1899,-958.64 1974.03,-882.05 1979.77,-521.69 1980.03,-433.27"/>
<polygon fill="#757575" stroke="#757575" points="1983.53,-433.26 1980.04,-423.26 1976.53,-433.25 1983.53,-433.26"/>
</g>
<!-- binding/binding.ts&#45;&gt;specification/specification.ts -->
<g id="edge6" class="edge">
<title>binding/binding.ts&#45;&gt;specification/specification.ts</title>
<path fill="none" stroke="#757575" d="M1089.03,-972.99C1147.27,-984.24 1251.99,-1001.64 1342.5,-1001.64 1342.5,-1001.64 1342.5,-1001.64 1510,-1001.64 1626.38,-1001.64 1753.43,-933.33 1804.9,-902.47"/>
<polygon fill="#757575" stroke="#757575" points="1806.89,-905.36 1813.61,-897.17 1803.25,-899.38 1806.89,-905.36"/>
</g>
<!-- common/color.ts -->
<g id="node8" class="node">
<title>common/color.ts</title>
<path fill="none" stroke="#c6c5fe" d="M2159.17,-480.14C2159.17,-480.14 2082.83,-480.14 2082.83,-480.14 2079.67,-480.14 2076.5,-476.98 2076.5,-473.81 2076.5,-473.81 2076.5,-467.48 2076.5,-467.48 2076.5,-464.31 2079.67,-461.14 2082.83,-461.14 2082.83,-461.14 2159.17,-461.14 2159.17,-461.14 2162.33,-461.14 2165.5,-464.31 2165.5,-467.48 2165.5,-467.48 2165.5,-473.81 2165.5,-473.81 2165.5,-476.98 2162.33,-480.14 2159.17,-480.14"/>
<text text-anchor="middle" x="2121" y="-468.14" font-family="Arial" font-size="10.00" fill="#c6c5fe">common/color.ts</text>
</g>
<!-- common/index.ts&#45;&gt;common/color.ts -->
<g id="edge14" class="edge">
<title>common/index.ts&#45;&gt;common/color.ts</title>
<path fill="none" stroke="#757575" d="M2005.1,-423.18C2027.59,-432.47 2061.98,-446.68 2087.28,-457.13"/>
<polygon fill="#757575" stroke="#757575" points="2086.25,-460.49 2096.83,-461.07 2088.92,-454.02 2086.25,-460.49"/>
</g>
<!-- common/math.ts -->
<g id="node9" class="node">
<title>common/math.ts</title>
<path fill="none" stroke="#cfffac" d="M2298.67,-461.14C2298.67,-461.14 2221.33,-461.14 2221.33,-461.14 2218.17,-461.14 2215,-457.98 2215,-454.81 2215,-454.81 2215,-448.48 2215,-448.48 2215,-445.31 2218.17,-442.14 2221.33,-442.14 2221.33,-442.14 2298.67,-442.14 2298.67,-442.14 2301.83,-442.14 2305,-445.31 2305,-448.48 2305,-448.48 2305,-454.81 2305,-454.81 2305,-457.98 2301.83,-461.14 2298.67,-461.14"/>
<text text-anchor="middle" x="2260" y="-449.14" font-family="Arial" font-size="10.00" fill="#cfffac">common/math.ts</text>
</g>
<!-- common/index.ts&#45;&gt;common/math.ts -->
<g id="edge16" class="edge">
<title>common/index.ts&#45;&gt;common/math.ts</title>
<path fill="none" stroke="#757575" d="M2027.12,-419.83C2075.7,-426.5 2152.96,-437.1 2204.8,-444.21"/>
<polygon fill="#757575" stroke="#757575" points="2204.43,-447.69 2214.81,-445.58 2205.38,-440.76 2204.43,-447.69"/>
</g>
<!-- common/exceptions.ts -->
<g id="node10" class="node">
<title>common/exceptions.ts</title>
<path fill="none" stroke="#cfffac" d="M2172.67,-404.14C2172.67,-404.14 2069.33,-404.14 2069.33,-404.14 2066.17,-404.14 2063,-400.98 2063,-397.81 2063,-397.81 2063,-391.48 2063,-391.48 2063,-388.31 2066.17,-385.14 2069.33,-385.14 2069.33,-385.14 2172.67,-385.14 2172.67,-385.14 2175.83,-385.14 2179,-388.31 2179,-391.48 2179,-391.48 2179,-397.81 2179,-397.81 2179,-400.98 2175.83,-404.14 2172.67,-404.14"/>
<text text-anchor="middle" x="2121" y="-392.14" font-family="Arial" font-size="10.00" fill="#cfffac">common/exceptions.ts</text>
</g>
<!-- common/index.ts&#45;&gt;common/exceptions.ts -->
<g id="edge15" class="edge">
<title>common/index.ts&#45;&gt;common/exceptions.ts</title>
<path fill="none" stroke="#757575" d="M2027.19,-407.42C2035.32,-406.3 2043.96,-405.11 2052.57,-403.93"/>
<polygon fill="#757575" stroke="#757575" points="2053.2,-407.37 2062.62,-402.54 2052.24,-400.44 2053.2,-407.37"/>
</g>
<!-- common/utils.ts -->
<g id="node11" class="node">
<title>common/utils.ts</title>
<path fill="none" stroke="#cfffac" d="M2157.67,-367.14C2157.67,-367.14 2084.33,-367.14 2084.33,-367.14 2081.17,-367.14 2078,-363.98 2078,-360.81 2078,-360.81 2078,-354.48 2078,-354.48 2078,-351.31 2081.17,-348.14 2084.33,-348.14 2084.33,-348.14 2157.67,-348.14 2157.67,-348.14 2160.83,-348.14 2164,-351.31 2164,-354.48 2164,-354.48 2164,-360.81 2164,-360.81 2164,-363.98 2160.83,-367.14 2157.67,-367.14"/>
<text text-anchor="middle" x="2121" y="-355.14" font-family="Arial" font-size="10.00" fill="#cfffac">common/utils.ts</text>
</g>
<!-- common/index.ts&#45;&gt;common/utils.ts -->
<g id="edge17" class="edge">
<title>common/index.ts&#45;&gt;common/utils.ts</title>
<path fill="none" stroke="#757575" d="M2001.39,-404.08C2017.64,-396.23 2041.57,-385.08 2063,-376.64 2068.28,-374.57 2073.88,-372.51 2079.44,-370.57"/>
<polygon fill="#757575" stroke="#757575" points="2080.98,-373.74 2089.31,-367.2 2078.72,-367.12 2080.98,-373.74"/>
</g>
<!-- binding/index.ts -->
<g id="node7" class="node">
<title>binding/index.ts</title>
<path fill="none" stroke="#c6c5fe" d="M921.17,-1087.14C921.17,-1087.14 848.83,-1087.14 848.83,-1087.14 845.67,-1087.14 842.5,-1083.98 842.5,-1080.81 842.5,-1080.81 842.5,-1074.48 842.5,-1074.48 842.5,-1071.31 845.67,-1068.14 848.83,-1068.14 848.83,-1068.14 921.17,-1068.14 921.17,-1068.14 924.33,-1068.14 927.5,-1071.31 927.5,-1074.48 927.5,-1074.48 927.5,-1080.81 927.5,-1080.81 927.5,-1083.98 924.33,-1087.14 921.17,-1087.14"/>
<text text-anchor="middle" x="885" y="-1075.14" font-family="Arial" font-size="10.00" fill="#c6c5fe">binding/index.ts</text>
</g>
<!-- binding/index.ts&#45;&gt;binding/array.ts -->
<g id="edge7" class="edge">
<title>binding/index.ts&#45;&gt;binding/array.ts</title>
<path fill="none" stroke="#757575" d="M915.01,-1068.08C959.22,-1052.93 1045.46,-1021.17 1113,-982.64 1133.69,-970.84 1155.27,-954.32 1170.21,-942.1"/>
<polygon fill="#757575" stroke="#757575" points="1172.74,-944.55 1178.19,-935.47 1168.26,-939.17 1172.74,-944.55"/>
</g>
<!-- binding/index.ts&#45;&gt;binding/types.ts -->
<g id="edge9" class="edge">
<title>binding/index.ts&#45;&gt;binding/types.ts</title>
<path fill="none" stroke="#757575" d="M927.58,-1069.2C973.23,-1059.77 1048.59,-1043.71 1113,-1027.64 1178.86,-1011.22 1254.58,-989.56 1300.46,-976.12"/>
<polygon fill="#757575" stroke="#757575" points="1301.73,-979.39 1310.34,-973.22 1299.76,-972.68 1301.73,-979.39"/>
</g>
<!-- binding/index.ts&#45;&gt;binding/binding.ts -->
<g id="edge8" class="edge">
<title>binding/index.ts&#45;&gt;binding/binding.ts</title>
<path fill="none" stroke="#757575" d="M892.79,-1068.08C906.16,-1049.91 937.66,-1010.23 973,-987.64 979.69,-983.37 987.23,-979.75 994.81,-976.72"/>
<polygon fill="#757575" stroke="#757575" points="996.19,-979.94 1004.36,-973.2 993.77,-973.38 996.19,-979.94"/>
</g>
<!-- common/color.ts&#45;&gt;common/math.ts -->
<g id="edge13" class="edge">
<title>common/color.ts&#45;&gt;common/math.ts</title>
<path fill="none" stroke="#757575" d="M2165.72,-464.58C2178.08,-462.87 2191.68,-460.98 2204.59,-459.19"/>
<polygon fill="#757575" stroke="#757575" points="2205.33,-462.62 2214.75,-457.78 2204.36,-455.69 2205.33,-462.62"/>
</g>
<!-- compiler/compiler.ts -->
<g id="node12" class="node">
<title>compiler/compiler.ts</title>
<path fill="none" stroke="#c6c5fe" d="M930.67,-403.14C930.67,-403.14 839.33,-403.14 839.33,-403.14 836.17,-403.14 833,-399.98 833,-396.81 833,-396.81 833,-390.48 833,-390.48 833,-387.31 836.17,-384.14 839.33,-384.14 839.33,-384.14 930.67,-384.14 930.67,-384.14 933.83,-384.14 937,-387.31 937,-390.48 937,-390.48 937,-396.81 937,-396.81 937,-399.98 933.83,-403.14 930.67,-403.14"/>
<text text-anchor="middle" x="885" y="-391.14" font-family="Arial" font-size="10.00" fill="#c6c5fe">compiler/compiler.ts</text>
</g>
<!-- compiler/compiler.ts&#45;&gt;specification/index.ts -->
<g id="edge24" class="edge">
<title>compiler/compiler.ts&#45;&gt;specification/index.ts</title>
<path fill="none" stroke="#757575" d="M895.31,-403.33C910.37,-418.5 941.56,-447.95 973,-465.64 1045.15,-506.24 1068.7,-506.5 1149,-526.64 1266.86,-556.21 1304.58,-528.74 1419,-569.64 1443.82,-578.52 1469.55,-594.4 1486.92,-606.28"/>
<polygon fill="#757575" stroke="#757575" points="1484.99,-609.21 1495.19,-612.08 1489.01,-603.47 1484.99,-609.21"/>
</g>
<!-- compiler/compiler.ts&#45;&gt;common/index.ts -->
<g id="edge18" class="edge">
<title>compiler/compiler.ts&#45;&gt;common/index.ts</title>
<path fill="none" stroke="#757575" d="M886.12,-383.9C887.14,-346.4 896.2,-210.37 973,-146.64 1004.97,-120.12 1300.96,-89.64 1342.5,-89.64 1342.5,-89.64 1342.5,-89.64 1662.5,-89.64 1769.03,-89.64 1819.52,-57.71 1899,-128.64 1939.57,-164.85 1968.37,-335.61 1977.18,-394.01"/>
<polygon fill="#757575" stroke="#757575" points="1973.74,-394.73 1978.67,-404.12 1980.67,-393.71 1973.74,-394.73"/>
</g>
<!-- compiler/parser.ts -->
<g id="node13" class="node">
<title>compiler/parser.ts</title>
<path fill="none" stroke="#c6c5fe" d="M1384.67,-328.14C1384.67,-328.14 1302.33,-328.14 1302.33,-328.14 1299.17,-328.14 1296,-324.98 1296,-321.81 1296,-321.81 1296,-315.48 1296,-315.48 1296,-312.31 1299.17,-309.14 1302.33,-309.14 1302.33,-309.14 1384.67,-309.14 1384.67,-309.14 1387.83,-309.14 1391,-312.31 1391,-315.48 1391,-315.48 1391,-321.81 1391,-321.81 1391,-324.98 1387.83,-328.14 1384.67,-328.14"/>
<text text-anchor="middle" x="1343.5" y="-316.14" font-family="Arial" font-size="10.00" fill="#c6c5fe">compiler/parser.ts</text>
</g>
<!-- compiler/compiler.ts&#45;&gt;compiler/parser.ts -->
<g id="edge19" class="edge">
<title>compiler/compiler.ts&#45;&gt;compiler/parser.ts</title>
<path fill="none" stroke="#757575" d="M931.12,-384.14C944.58,-381.35 959.38,-378.33 973,-375.64 1051.08,-360.25 1070.36,-354.88 1149,-342.64 1194.9,-335.5 1247.2,-329.12 1285.84,-324.73"/>
<polygon fill="#757575" stroke="#757575" points="1286.31,-328.2 1295.86,-323.61 1285.53,-321.25 1286.31,-328.2"/>
</g>
<!-- compiler/resolver.ts -->
<g id="node14" class="node">
<title>compiler/resolver.ts</title>
<path fill="none" stroke="#c6c5fe" d="M1087.17,-403.14C1087.17,-403.14 998.83,-403.14 998.83,-403.14 995.67,-403.14 992.5,-399.98 992.5,-396.81 992.5,-396.81 992.5,-390.48 992.5,-390.48 992.5,-387.31 995.67,-384.14 998.83,-384.14 998.83,-384.14 1087.17,-384.14 1087.17,-384.14 1090.33,-384.14 1093.5,-387.31 1093.5,-390.48 1093.5,-390.48 1093.5,-396.81 1093.5,-396.81 1093.5,-399.98 1090.33,-403.14 1087.17,-403.14"/>
<text text-anchor="middle" x="1043" y="-391.14" font-family="Arial" font-size="10.00" fill="#c6c5fe">compiler/resolver.ts</text>
</g>
<!-- compiler/compiler.ts&#45;&gt;compiler/resolver.ts -->
<g id="edge20" class="edge">
<title>compiler/compiler.ts&#45;&gt;compiler/resolver.ts</title>
<path fill="none" stroke="#757575" d="M937.08,-393.64C951.52,-393.64 967.36,-393.64 982.26,-393.64"/>
<polygon fill="#757575" stroke="#757575" points="982.4,-397.14 992.4,-393.64 982.4,-390.14 982.4,-397.14"/>
</g>
<!-- compiler/scope.ts -->
<g id="node15" class="node">
<title>compiler/scope.ts</title>
<path fill="none" stroke="#c6c5fe" d="M1549.67,-61.14C1549.67,-61.14 1468.33,-61.14 1468.33,-61.14 1465.17,-61.14 1462,-57.98 1462,-54.81 1462,-54.81 1462,-48.48 1462,-48.48 1462,-45.31 1465.17,-42.14 1468.33,-42.14 1468.33,-42.14 1549.67,-42.14 1549.67,-42.14 1552.83,-42.14 1556,-45.31 1556,-48.48 1556,-48.48 1556,-54.81 1556,-54.81 1556,-57.98 1552.83,-61.14 1549.67,-61.14"/>
<text text-anchor="middle" x="1509" y="-49.14" font-family="Arial" font-size="10.00" fill="#c6c5fe">compiler/scope.ts</text>
</g>
<!-- compiler/compiler.ts&#45;&gt;compiler/scope.ts -->
<g id="edge21" class="edge">
<title>compiler/compiler.ts&#45;&gt;compiler/scope.ts</title>
<path fill="none" stroke="#757575" d="M885.78,-383.91C885.45,-343.78 889.82,-189.76 973,-113.64 1041.79,-50.7 1328.1,-48.2 1451.26,-50.17"/>
<polygon fill="#757575" stroke="#757575" points="1451.55,-53.67 1461.61,-50.35 1451.67,-46.67 1451.55,-53.67"/>
</g>
<!-- intrinsics/index.ts -->
<g id="node16" class="node">
<title>intrinsics/index.ts</title>
<path fill="none" stroke="#ff6c60" d="M1869.67,-385.14C1869.67,-385.14 1789.33,-385.14 1789.33,-385.14 1786.17,-385.14 1783,-381.98 1783,-378.81 1783,-378.81 1783,-372.48 1783,-372.48 1783,-369.31 1786.17,-366.14 1789.33,-366.14 1789.33,-366.14 1869.67,-366.14 1869.67,-366.14 1872.83,-366.14 1876,-369.31 1876,-372.48 1876,-372.48 1876,-378.81 1876,-378.81 1876,-381.98 1872.83,-385.14 1869.67,-385.14"/>
<text text-anchor="middle" x="1829.5" y="-373.14" font-family="Arial" font-size="10.00" fill="#ff6c60">intrinsics/index.ts</text>
</g>
<!-- compiler/compiler.ts&#45;&gt;intrinsics/index.ts -->
<g id="edge22" class="edge">
<title>compiler/compiler.ts&#45;&gt;intrinsics/index.ts</title>
<path fill="none" stroke="#757575" d="M899.42,-384.01C915.91,-372.68 945.13,-354.21 973,-344.64 1098.39,-301.63 1135.8,-310.45 1268,-300.64 1334.93,-295.68 1352.16,-294.57 1419,-300.64 1550.75,-312.61 1703.43,-345.8 1779.77,-363.75"/>
<polygon fill="#757575" stroke="#757575" points="1779.04,-367.18 1789.58,-366.08 1780.66,-360.37 1779.04,-367.18"/>
</g>
<!-- library/index.ts -->
<g id="node17" class="node">
<title>library/index.ts</title>
<path fill="none" stroke="#c6c5fe" d="M1224.17,-517.14C1224.17,-517.14 1156.83,-517.14 1156.83,-517.14 1153.67,-517.14 1150.5,-513.98 1150.5,-510.81 1150.5,-510.81 1150.5,-504.48 1150.5,-504.48 1150.5,-501.31 1153.67,-498.14 1156.83,-498.14 1156.83,-498.14 1224.17,-498.14 1224.17,-498.14 1227.33,-498.14 1230.5,-501.31 1230.5,-504.48 1230.5,-504.48 1230.5,-510.81 1230.5,-510.81 1230.5,-513.98 1227.33,-517.14 1224.17,-517.14"/>
<text text-anchor="middle" x="1190.5" y="-505.14" font-family="Arial" font-size="10.00" fill="#c6c5fe">library/index.ts</text>
</g>
<!-- compiler/compiler.ts&#45;&gt;library/index.ts -->
<g id="edge23" class="edge">
<title>compiler/compiler.ts&#45;&gt;library/index.ts</title>
<path fill="none" stroke="#757575" d="M911.35,-403.17C965.47,-423.49 1092.39,-471.17 1154.29,-494.42"/>
<polygon fill="#757575" stroke="#757575" points="1153.41,-497.83 1164,-498.07 1155.87,-491.27 1153.41,-497.83"/>
</g>
<!-- compiler/parser.ts&#45;&gt;specification/index.ts -->
<g id="edge29" class="edge">
<title>compiler/parser.ts&#45;&gt;specification/index.ts</title>
<path fill="none" stroke="#757575" d="M1352.91,-328.34C1367.63,-345.62 1398.43,-383.27 1419,-418.64 1456.33,-482.83 1487.95,-565.58 1501.26,-602.45"/>
<polygon fill="#757575" stroke="#757575" points="1497.99,-603.72 1504.65,-611.96 1504.59,-601.37 1497.99,-603.72"/>
</g>
<!-- compiler/parser.ts&#45;&gt;common/index.ts -->
<g id="edge28" class="edge">
<title>compiler/parser.ts&#45;&gt;common/index.ts</title>
<path fill="none" stroke="#757575" d="M1391.15,-313.62C1488.76,-304.87 1720.33,-293.39 1899,-357.64 1923.16,-366.33 1946.85,-384.1 1962.31,-397.3"/>
<polygon fill="#757575" stroke="#757575" points="1960.18,-400.1 1970,-404.08 1964.81,-394.84 1960.18,-400.1"/>
</g>
<!-- compiler/resolver.ts&#45;&gt;specification/index.ts -->
<g id="edge34" class="edge">
<title>compiler/resolver.ts&#45;&gt;specification/index.ts</title>
<path fill="none" stroke="#757575" d="M1093.6,-400.25C1192.48,-413.58 1405.85,-443.24 1419,-452.64 1470.81,-489.72 1494.98,-566.33 1503.82,-602.25"/>
<polygon fill="#757575" stroke="#757575" points="1500.41,-603.06 1506.08,-612.01 1507.23,-601.48 1500.41,-603.06"/>
</g>
<!-- compiler/resolver.ts&#45;&gt;common/index.ts -->
<g id="edge30" class="edge">
<title>compiler/resolver.ts&#45;&gt;common/index.ts</title>
<path fill="none" stroke="#757575" d="M1059.82,-384.13C1095.42,-363.38 1185.2,-314.83 1268,-300.64 1544.53,-253.28 1649.52,-190.3 1899,-318.64 1932.07,-335.66 1957.2,-372.55 1970.18,-395.02"/>
<polygon fill="#757575" stroke="#757575" points="1967.21,-396.9 1975.13,-403.94 1973.34,-393.5 1967.21,-396.9"/>
</g>
<!-- compiler/resolver.ts&#45;&gt;compiler/parser.ts -->
<g id="edge31" class="edge">
<title>compiler/resolver.ts&#45;&gt;compiler/parser.ts</title>
<path fill="none" stroke="#757575" d="M1082.11,-384.07C1136.34,-370.44 1235.73,-345.47 1294.79,-330.63"/>
<polygon fill="#757575" stroke="#757575" points="1295.77,-333.99 1304.62,-328.16 1294.07,-327.2 1295.77,-333.99"/>
</g>
<!-- compiler/resolver.ts&#45;&gt;intrinsics/index.ts -->
<g id="edge32" class="edge">
<title>compiler/resolver.ts&#45;&gt;intrinsics/index.ts</title>
<path fill="none" stroke="#757575" d="M1093.79,-390.05C1139.16,-386.95 1208.04,-382.65 1268,-380.64 1452.58,-374.47 1671.53,-374.7 1772.45,-375.23"/>
<polygon fill="#757575" stroke="#757575" points="1772.69,-378.74 1782.71,-375.29 1772.73,-371.74 1772.69,-378.74"/>
</g>
<!-- compiler/resolver.ts&#45;&gt;library/index.ts -->
<g id="edge33" class="edge">
<title>compiler/resolver.ts&#45;&gt;library/index.ts</title>
<path fill="none" stroke="#757575" d="M1063.42,-403.29C1078,-411.08 1097.95,-422.98 1113,-436.64 1132.48,-454.33 1129.32,-466.17 1149,-483.64 1152.7,-486.93 1156.92,-490 1161.2,-492.78"/>
<polygon fill="#757575" stroke="#757575" points="1159.56,-495.88 1169.93,-498.05 1163.17,-489.89 1159.56,-495.88"/>
</g>
<!-- compiler/scope.ts&#45;&gt;common/index.ts -->
<g id="edge35" class="edge">
<title>compiler/scope.ts&#45;&gt;common/index.ts</title>
<path fill="none" stroke="#757575" d="M1556.07,-47.93C1647.69,-41.56 1848.29,-33.05 1899,-75.64 1948.69,-117.38 1972.06,-327.58 1978.26,-393.7"/>
<polygon fill="#757575" stroke="#757575" points="1974.81,-394.34 1979.2,-403.99 1981.78,-393.71 1974.81,-394.34"/>
</g>
<!-- intrinsics/index.ts&#45;&gt;specification/index.ts -->
<g id="edge40" class="edge">
<title>intrinsics/index.ts&#45;&gt;specification/index.ts</title>
<path fill="none" stroke="#757575" d="M1816.1,-385.22C1767.69,-422.61 1591.11,-558.99 1530.55,-605.77"/>
<polygon fill="#757575" stroke="#757575" points="1528.26,-603.12 1522.49,-612 1532.54,-608.66 1528.26,-603.12"/>
</g>
<!-- intrinsics/index.ts&#45;&gt;common/index.ts -->
<g id="edge39" class="edge">
<title>intrinsics/index.ts&#45;&gt;common/index.ts</title>
<path fill="none" stroke="#757575" d="M1868.23,-385.23C1887.78,-390.2 1911.85,-396.32 1932.64,-401.6"/>
<polygon fill="#757575" stroke="#757575" points="1931.99,-405.05 1942.55,-404.12 1933.72,-398.27 1931.99,-405.05"/>
</g>
<!-- library/index.ts&#45;&gt;common/index.ts -->
<g id="edge41" class="edge">
<title>library/index.ts&#45;&gt;common/index.ts</title>
<path fill="none" stroke="#757575" d="M1200.83,-498.13C1214.28,-485.13 1240.54,-462.33 1268,-452.64 1388.71,-410.08 1778.98,-410.83 1924.56,-412.69"/>
<polygon fill="#757575" stroke="#757575" points="1924.57,-416.19 1934.61,-412.83 1924.66,-409.19 1924.57,-416.19"/>
</g>
<!-- library/index.ts&#45;&gt;compiler/parser.ts -->
<g id="edge42" class="edge">
<title>library/index.ts&#45;&gt;compiler/parser.ts</title>
<path fill="none" stroke="#757575" d="M1198.03,-498.12C1206.23,-486.06 1220.59,-464.59 1232,-445.64 1249.04,-417.36 1246.95,-406.09 1268,-380.64 1283.02,-362.49 1303.91,-345.64 1319.74,-334.1"/>
<polygon fill="#757575" stroke="#757575" points="1321.83,-336.91 1327.95,-328.26 1317.78,-331.21 1321.83,-336.91"/>
</g>
<!-- library/primitives2d.ts -->
<g id="node21" class="node">
<title>library/primitives2d.ts</title>
<path fill="none" stroke="#cfffac" d="M1391.17,-517.14C1391.17,-517.14 1295.83,-517.14 1295.83,-517.14 1292.67,-517.14 1289.5,-513.98 1289.5,-510.81 1289.5,-510.81 1289.5,-504.48 1289.5,-504.48 1289.5,-501.31 1292.67,-498.14 1295.83,-498.14 1295.83,-498.14 1391.17,-498.14 1391.17,-498.14 1394.33,-498.14 1397.5,-501.31 1397.5,-504.48 1397.5,-504.48 1397.5,-510.81 1397.5,-510.81 1397.5,-513.98 1394.33,-517.14 1391.17,-517.14"/>
<text text-anchor="middle" x="1343.5" y="-505.14" font-family="Arial" font-size="10.00" fill="#cfffac">library/primitives2d.ts</text>
</g>
<!-- library/index.ts&#45;&gt;library/primitives2d.ts -->
<g id="edge43" class="edge">
<title>library/index.ts&#45;&gt;library/primitives2d.ts</title>
<path fill="none" stroke="#757575" d="M1230.78,-507.64C1245.61,-507.64 1262.89,-507.64 1279.37,-507.64"/>
<polygon fill="#757575" stroke="#757575" points="1279.49,-511.14 1289.49,-507.64 1279.49,-504.14 1279.49,-511.14"/>
</g>
<!-- library/primitives3d.ts -->
<g id="node22" class="node">
<title>library/primitives3d.ts</title>
<path fill="none" stroke="#cfffac" d="M1391.17,-480.14C1391.17,-480.14 1295.83,-480.14 1295.83,-480.14 1292.67,-480.14 1289.5,-476.98 1289.5,-473.81 1289.5,-473.81 1289.5,-467.48 1289.5,-467.48 1289.5,-464.31 1292.67,-461.14 1295.83,-461.14 1295.83,-461.14 1391.17,-461.14 1391.17,-461.14 1394.33,-461.14 1397.5,-464.31 1397.5,-467.48 1397.5,-467.48 1397.5,-473.81 1397.5,-473.81 1397.5,-476.98 1394.33,-480.14 1391.17,-480.14"/>
<text text-anchor="middle" x="1343.5" y="-468.14" font-family="Arial" font-size="10.00" fill="#cfffac">library/primitives3d.ts</text>
</g>
<!-- library/index.ts&#45;&gt;library/primitives3d.ts -->
<g id="edge44" class="edge">
<title>library/index.ts&#45;&gt;library/primitives3d.ts</title>
<path fill="none" stroke="#757575" d="M1230.39,-498.12C1249.69,-493.39 1273.2,-487.63 1293.69,-482.6"/>
<polygon fill="#757575" stroke="#757575" points="1294.6,-485.98 1303.48,-480.2 1292.94,-479.18 1294.6,-485.98"/>
</g>
<!-- compiler/index.ts -->
<g id="node18" class="node">
<title>compiler/index.ts</title>
<path fill="none" stroke="#c6c5fe" d="M790.67,-403.14C790.67,-403.14 712.33,-403.14 712.33,-403.14 709.17,-403.14 706,-399.98 706,-396.81 706,-396.81 706,-390.48 706,-390.48 706,-387.31 709.17,-384.14 712.33,-384.14 712.33,-384.14 790.67,-384.14 790.67,-384.14 793.83,-384.14 797,-387.31 797,-390.48 797,-390.48 797,-396.81 797,-396.81 797,-399.98 793.83,-403.14 790.67,-403.14"/>
<text text-anchor="middle" x="751.5" y="-391.14" font-family="Arial" font-size="10.00" fill="#c6c5fe">compiler/index.ts</text>
</g>
<!-- compiler/index.ts&#45;&gt;compiler/compiler.ts -->
<g id="edge25" class="edge">
<title>compiler/index.ts&#45;&gt;compiler/compiler.ts</title>
<path fill="none" stroke="#757575" d="M797.02,-393.64C805.27,-393.64 814.01,-393.64 822.66,-393.64"/>
<polygon fill="#757575" stroke="#757575" points="822.72,-397.14 832.72,-393.64 822.72,-390.14 822.72,-397.14"/>
</g>
<!-- compiler/index.ts&#45;&gt;compiler/parser.ts -->
<g id="edge26" class="edge">
<title>compiler/index.ts&#45;&gt;compiler/parser.ts</title>
<path fill="none" stroke="#757575" d="M795.11,-384.1C807.34,-381.36 820.7,-378.38 833,-375.64 895.21,-361.8 910.08,-354.79 973,-344.64 1050.63,-332.12 1070.57,-332.27 1149,-326.64 1195.02,-323.34 1247.31,-321.28 1285.92,-320.08"/>
<polygon fill="#757575" stroke="#757575" points="1286.04,-323.58 1295.93,-319.78 1285.83,-316.58 1286.04,-323.58"/>
</g>
<!-- compiler/transforms/index.ts -->
<g id="node19" class="node">
<title>compiler/transforms/index.ts</title>
<path fill="none" stroke="#c6c5fe" d="M1106.67,-175.14C1106.67,-175.14 979.33,-175.14 979.33,-175.14 976.17,-175.14 973,-171.98 973,-168.81 973,-168.81 973,-162.48 973,-162.48 973,-159.31 976.17,-156.14 979.33,-156.14 979.33,-156.14 1106.67,-156.14 1106.67,-156.14 1109.83,-156.14 1113,-159.31 1113,-162.48 1113,-162.48 1113,-168.81 1113,-168.81 1113,-171.98 1109.83,-175.14 1106.67,-175.14"/>
<text text-anchor="middle" x="1043" y="-163.14" font-family="Arial" font-size="10.00" fill="#c6c5fe">compiler/transforms/index.ts</text>
</g>
<!-- compiler/index.ts&#45;&gt;compiler/transforms/index.ts -->
<g id="edge27" class="edge">
<title>compiler/index.ts&#45;&gt;compiler/transforms/index.ts</title>
<path fill="none" stroke="#757575" d="M754.31,-384.11C760.2,-355.79 781.48,-271.38 833,-227.64 869.2,-196.92 920.1,-181.42 962.61,-173.6"/>
<polygon fill="#757575" stroke="#757575" points="963.4,-177.01 972.66,-171.86 962.21,-170.12 963.4,-177.01"/>
</g>
<!-- compiler/transforms/flattener.ts -->
<g id="node20" class="node">
<title>compiler/transforms/flattener.ts</title>
<path fill="none" stroke="#c6c5fe" d="M1412.67,-176.14C1412.67,-176.14 1274.33,-176.14 1274.33,-176.14 1271.17,-176.14 1268,-172.98 1268,-169.81 1268,-169.81 1268,-163.48 1268,-163.48 1268,-160.31 1271.17,-157.14 1274.33,-157.14 1274.33,-157.14 1412.67,-157.14 1412.67,-157.14 1415.83,-157.14 1419,-160.31 1419,-163.48 1419,-163.48 1419,-169.81 1419,-169.81 1419,-172.98 1415.83,-176.14 1412.67,-176.14"/>
<text text-anchor="middle" x="1343.5" y="-164.14" font-family="Arial" font-size="10.00" fill="#c6c5fe">compiler/transforms/flattener.ts</text>
</g>
<!-- compiler/transforms/index.ts&#45;&gt;compiler/transforms/flattener.ts -->
<g id="edge38" class="edge">
<title>compiler/transforms/index.ts&#45;&gt;compiler/transforms/flattener.ts</title>
<path fill="none" stroke="#757575" d="M1113.23,-165.88C1156.3,-166.02 1212,-166.21 1257.71,-166.36"/>
<polygon fill="#757575" stroke="#757575" points="1257.89,-169.86 1267.9,-166.39 1257.91,-162.86 1257.89,-169.86"/>
</g>
<!-- compiler/transforms/flattener.ts&#45;&gt;specification/index.ts -->
<g id="edge37" class="edge">
<title>compiler/transforms/flattener.ts&#45;&gt;specification/index.ts</title>
<path fill="none" stroke="#757575" d="M1350.95,-176.33C1365.04,-197.85 1398.91,-251.63 1419,-300.64 1464.06,-410.59 1494.12,-550.82 1504.23,-601.91"/>
<polygon fill="#757575" stroke="#757575" points="1500.83,-602.77 1506.18,-611.92 1507.7,-601.43 1500.83,-602.77"/>
</g>
<!-- compiler/transforms/flattener.ts&#45;&gt;common/index.ts -->
<g id="edge36" class="edge">
<title>compiler/transforms/flattener.ts&#45;&gt;common/index.ts</title>
<path fill="none" stroke="#757575" d="M1375.97,-157.1C1467.23,-131.49 1735.83,-70.97 1899,-190.64 1965.61,-239.5 1977.57,-348.66 1979.62,-393.66"/>
<polygon fill="#757575" stroke="#757575" points="1976.13,-393.99 1979.96,-403.87 1983.13,-393.76 1976.13,-393.99"/>
</g>
<!-- mark/compile.ts -->
<g id="node23" class="node">
<title>mark/compile.ts</title>
<path fill="none" stroke="#c6c5fe" d="M643.17,-821.14C643.17,-821.14 569.83,-821.14 569.83,-821.14 566.67,-821.14 563.5,-817.98 563.5,-814.81 563.5,-814.81 563.5,-808.48 563.5,-808.48 563.5,-805.31 566.67,-802.14 569.83,-802.14 569.83,-802.14 643.17,-802.14 643.17,-802.14 646.33,-802.14 649.5,-805.31 649.5,-808.48 649.5,-808.48 649.5,-814.81 649.5,-814.81 649.5,-817.98 646.33,-821.14 643.17,-821.14"/>
<text text-anchor="middle" x="606.5" y="-809.14" font-family="Arial" font-size="10.00" fill="#c6c5fe">mark/compile.ts</text>
</g>
<!-- mark/compile.ts&#45;&gt;specification/specification.ts -->
<g id="edge46" class="edge">
<title>mark/compile.ts&#45;&gt;specification/specification.ts</title>
<path fill="none" stroke="#757575" d="M649.53,-814.26C826.79,-825.29 1514.99,-868.13 1749.62,-882.73"/>
<polygon fill="#757575" stroke="#757575" points="1749.58,-886.24 1759.78,-883.37 1750.02,-879.25 1749.58,-886.24"/>
</g>
<!-- mark/compile.ts&#45;&gt;compiler/compiler.ts -->
<g id="edge45" class="edge">
<title>mark/compile.ts&#45;&gt;compiler/compiler.ts</title>
<path fill="none" stroke="#757575" d="M613.79,-802.13C649.26,-748.51 824.24,-483.99 871.96,-411.84"/>
<polygon fill="#757575" stroke="#757575" points="875,-413.6 877.59,-403.33 869.16,-409.74 875,-413.6"/>
</g>
<!-- mark/declare.ts -->
<g id="node24" class="node">
<title>mark/declare.ts</title>
<path fill="none" stroke="#c6c5fe" d="M642.17,-555.14C642.17,-555.14 570.83,-555.14 570.83,-555.14 567.67,-555.14 564.5,-551.98 564.5,-548.81 564.5,-548.81 564.5,-542.48 564.5,-542.48 564.5,-539.31 567.67,-536.14 570.83,-536.14 570.83,-536.14 642.17,-536.14 642.17,-536.14 645.33,-536.14 648.5,-539.31 648.5,-542.48 648.5,-542.48 648.5,-548.81 648.5,-548.81 648.5,-551.98 645.33,-555.14 642.17,-555.14"/>
<text text-anchor="middle" x="606.5" y="-543.14" font-family="Arial" font-size="10.00" fill="#c6c5fe">mark/declare.ts</text>
</g>
<!-- mark/declare.ts&#45;&gt;specification/index.ts -->
<g id="edge49" class="edge">
<title>mark/declare.ts&#45;&gt;specification/index.ts</title>
<path fill="none" stroke="#757575" d="M648.57,-547.62C767.87,-553.61 1124.63,-573.3 1419,-607.64 1427.37,-608.62 1436.17,-609.81 1444.83,-611.07"/>
<polygon fill="#757575" stroke="#757575" points="1444.51,-614.56 1454.92,-612.58 1445.54,-607.64 1444.51,-614.56"/>
</g>
<!-- mark/declare.ts&#45;&gt;common/index.ts -->
<g id="edge47" class="edge">
<title>mark/declare.ts&#45;&gt;common/index.ts</title>
<path fill="none" stroke="#757575" d="M607.82,-535.96C610.75,-463.85 638.87,-13.64 884,-13.64 884,-13.64 884,-13.64 1662.5,-13.64 1768.29,-13.64 1820.54,30.33 1899,-40.64 1952.42,-88.96 1973.52,-324.21 1978.67,-394.05"/>
<polygon fill="#757575" stroke="#757575" points="1975.19,-394.39 1979.39,-404.12 1982.17,-393.9 1975.19,-394.39"/>
</g>
<!-- mark/declare.ts&#45;&gt;compiler/index.ts -->
<g id="edge48" class="edge">
<title>mark/declare.ts&#45;&gt;compiler/index.ts</title>
<path fill="none" stroke="#757575" d="M616.45,-536.14C640.12,-510.97 704.65,-442.38 734.71,-410.43"/>
<polygon fill="#757575" stroke="#757575" points="737.26,-412.83 741.56,-403.15 732.16,-408.03 737.26,-412.83"/>
</g>
<!-- mark/index.ts -->
<g id="node25" class="node">
<title>mark/index.ts</title>
<path fill="none" stroke="#c6c5fe" d="M190.67,-783.14C190.67,-783.14 127.33,-783.14 127.33,-783.14 124.17,-783.14 121,-779.98 121,-776.81 121,-776.81 121,-770.48 121,-770.48 121,-767.31 124.17,-764.14 127.33,-764.14 127.33,-764.14 190.67,-764.14 190.67,-764.14 193.83,-764.14 197,-767.31 197,-770.48 197,-770.48 197,-776.81 197,-776.81 197,-779.98 193.83,-783.14 190.67,-783.14"/>
<text text-anchor="middle" x="159" y="-771.14" font-family="Arial" font-size="10.00" fill="#c6c5fe">mark/index.ts</text>
</g>
<!-- mark/index.ts&#45;&gt;mark/compile.ts -->
<g id="edge50" class="edge">
<title>mark/index.ts&#45;&gt;mark/compile.ts</title>
<path fill="none" stroke="#757575" d="M170.01,-764.01C183.33,-751.71 208.11,-730.6 233,-718.64 343.83,-665.42 397,-625.73 507,-680.64 554.14,-704.18 584.62,-762.2 597.88,-792.51"/>
<polygon fill="#757575" stroke="#757575" points="594.75,-794.11 601.85,-801.97 601.21,-791.4 594.75,-794.11"/>
</g>
<!-- mark/index.ts&#45;&gt;mark/declare.ts -->
<g id="edge51" class="edge">
<title>mark/index.ts&#45;&gt;mark/declare.ts</title>
<path fill="none" stroke="#757575" d="M164.14,-764.05C173.6,-743.07 198.66,-692.53 233,-661.64 325.06,-578.85 475.57,-555.15 554.12,-548.37"/>
<polygon fill="#757575" stroke="#757575" points="554.57,-551.84 564.26,-547.55 554.01,-544.86 554.57,-551.84"/>
</g>
<!-- mark/mark.ts -->
<g id="node26" class="node">
<title>mark/mark.ts</title>
<path fill="none" stroke="#ff6c60" d="M782.17,-1011.14C782.17,-1011.14 720.83,-1011.14 720.83,-1011.14 717.67,-1011.14 714.5,-1007.98 714.5,-1004.81 714.5,-1004.81 714.5,-998.48 714.5,-998.48 714.5,-995.31 717.67,-992.14 720.83,-992.14 720.83,-992.14 782.17,-992.14 782.17,-992.14 785.33,-992.14 788.5,-995.31 788.5,-998.48 788.5,-998.48 788.5,-1004.81 788.5,-1004.81 788.5,-1007.98 785.33,-1011.14 782.17,-1011.14"/>
<text text-anchor="middle" x="751.5" y="-999.14" font-family="Arial" font-size="10.00" fill="#ff6c60">mark/mark.ts</text>
</g>
<!-- mark/index.ts&#45;&gt;mark/mark.ts -->
<g id="edge52" class="edge">
<title>mark/index.ts&#45;&gt;mark/mark.ts</title>
<path fill="none" stroke="#757575" d="M165.56,-783.24C187.49,-820.11 272.23,-953.5 382,-1010.64 495.9,-1069.94 543.88,-1057.79 670,-1033.64 688.3,-1030.14 707.73,-1022.54 722.92,-1015.62"/>
<polygon fill="#757575" stroke="#757575" points="724.69,-1018.66 732.24,-1011.22 721.7,-1012.33 724.69,-1018.66"/>
</g>
<!-- mark/marks/index.ts -->
<g id="node27" class="node">
<title>mark/marks/index.ts</title>
<path fill="none" stroke="#c6c5fe" d="M336.17,-840.14C336.17,-840.14 242.83,-840.14 242.83,-840.14 239.67,-840.14 236.5,-836.98 236.5,-833.81 236.5,-833.81 236.5,-827.48 236.5,-827.48 236.5,-824.31 239.67,-821.14 242.83,-821.14 242.83,-821.14 336.17,-821.14 336.17,-821.14 339.33,-821.14 342.5,-824.31 342.5,-827.48 342.5,-827.48 342.5,-833.81 342.5,-833.81 342.5,-836.98 339.33,-840.14 336.17,-840.14"/>
<text text-anchor="middle" x="289.5" y="-828.14" font-family="Arial" font-size="10.00" fill="#c6c5fe">mark/marks/index.ts</text>
</g>
<!-- mark/index.ts&#45;&gt;mark/marks/index.ts -->
<g id="edge53" class="edge">
<title>mark/index.ts&#45;&gt;mark/marks/index.ts</title>
<path fill="none" stroke="#757575" d="M181.51,-783.18C202.36,-792.43 234.19,-806.55 257.72,-816.99"/>
<polygon fill="#757575" stroke="#757575" points="256.36,-820.22 266.92,-821.07 259.2,-813.82 256.36,-820.22"/>
</g>
<!-- mark/shaders/index.ts -->
<g id="node28" class="node">
<title>mark/shaders/index.ts</title>
<path fill="none" stroke="#c6c5fe" d="M339.67,-746.14C339.67,-746.14 239.33,-746.14 239.33,-746.14 236.17,-746.14 233,-742.98 233,-739.81 233,-739.81 233,-733.48 233,-733.48 233,-730.31 236.17,-727.14 239.33,-727.14 239.33,-727.14 339.67,-727.14 339.67,-727.14 342.83,-727.14 346,-730.31 346,-733.48 346,-733.48 346,-739.81 346,-739.81 346,-742.98 342.83,-746.14 339.67,-746.14"/>
<text text-anchor="middle" x="289.5" y="-734.14" font-family="Arial" font-size="10.00" fill="#c6c5fe">mark/shaders/index.ts</text>
</g>
<!-- mark/index.ts&#45;&gt;mark/shaders/index.ts -->
<g id="edge54" class="edge">
<title>mark/index.ts&#45;&gt;mark/shaders/index.ts</title>
<path fill="none" stroke="#757575" d="M193.09,-764.12C209.01,-759.53 228.28,-753.98 245.33,-749.07"/>
<polygon fill="#757575" stroke="#757575" points="246.43,-752.4 255.07,-746.27 244.5,-745.67 246.43,-752.4"/>
</g>
<!-- mark/mark.ts&#45;&gt;specification/index.ts -->
<g id="edge59" class="edge">
<title>mark/mark.ts&#45;&gt;specification/index.ts</title>
<path fill="none" stroke="#757575" d="M755.86,-991.79C764.62,-967.5 790.52,-904.2 833,-869.64 1047.51,-695.16 1161.99,-762.64 1419,-660.64 1438.79,-652.79 1460.7,-643.2 1477.83,-635.49"/>
<polygon fill="#757575" stroke="#757575" points="1479.65,-638.51 1487.31,-631.2 1476.76,-632.14 1479.65,-638.51"/>
</g>
<!-- mark/mark.ts&#45;&gt;binding/binding.ts -->
<g id="edge55" class="edge">
<title>mark/mark.ts&#45;&gt;binding/binding.ts</title>
<path fill="none" stroke="#757575" d="M788.66,-998.74C825.93,-995.56 885.67,-989.92 937,-982.64 953.17,-980.35 970.66,-977.38 986.65,-974.48"/>
<polygon fill="#757575" stroke="#757575" points="987.7,-977.84 996.9,-972.58 986.43,-970.96 987.7,-977.84"/>
</g>
<!-- mark/mark.ts&#45;&gt;common/index.ts -->
<g id="edge56" class="edge">
<title>mark/mark.ts&#45;&gt;common/index.ts</title>
<path fill="none" stroke="#757575" d="M757.41,-1011.18C768.14,-1030.91 795.7,-1076.08 833,-1096.64 1098.31,-1242.91 1205.04,-1191.64 1508,-1191.64 1508,-1191.64 1508,-1191.64 1662.5,-1191.64 1779.57,-1191.64 1831.14,-1171.05 1899,-1075.64 1975.02,-968.77 1979.93,-532.68 1980.05,-433.69"/>
<polygon fill="#757575" stroke="#757575" points="1983.55,-433.56 1980.05,-423.56 1976.55,-433.56 1983.55,-433.56"/>
</g>
<!-- platform/index.ts -->
<g id="node29" class="node">
<title>platform/index.ts</title>
<path fill="none" stroke="#ff6c60" d="M923.17,-973.14C923.17,-973.14 846.83,-973.14 846.83,-973.14 843.67,-973.14 840.5,-969.98 840.5,-966.81 840.5,-966.81 840.5,-960.48 840.5,-960.48 840.5,-957.31 843.67,-954.14 846.83,-954.14 846.83,-954.14 923.17,-954.14 923.17,-954.14 926.33,-954.14 929.5,-957.31 929.5,-960.48 929.5,-960.48 929.5,-966.81 929.5,-966.81 929.5,-969.98 926.33,-973.14 923.17,-973.14"/>
<text text-anchor="middle" x="885" y="-961.14" font-family="Arial" font-size="10.00" fill="#ff6c60">platform/index.ts</text>
</g>
<!-- mark/mark.ts&#45;&gt;platform/index.ts -->
<g id="edge57" class="edge">
<title>mark/mark.ts&#45;&gt;platform/index.ts</title>
<path fill="none" stroke="#757575" d="M769.42,-992.05C784.88,-985.91 808.59,-978.41 830.44,-972.47"/>
<polygon fill="#757575" stroke="#757575" points="831.54,-975.81 840.31,-969.87 829.75,-969.04 831.54,-975.81"/>
</g>
<!-- scale/scale.ts -->
<g id="node30" class="node">
<title>scale/scale.ts</title>
<path fill="none" stroke="#c6c5fe" d="M917.17,-897.14C917.17,-897.14 852.83,-897.14 852.83,-897.14 849.67,-897.14 846.5,-893.98 846.5,-890.81 846.5,-890.81 846.5,-884.48 846.5,-884.48 846.5,-881.31 849.67,-878.14 852.83,-878.14 852.83,-878.14 917.17,-878.14 917.17,-878.14 920.33,-878.14 923.5,-881.31 923.5,-884.48 923.5,-884.48 923.5,-890.81 923.5,-890.81 923.5,-893.98 920.33,-897.14 917.17,-897.14"/>
<text text-anchor="middle" x="885" y="-885.14" font-family="Arial" font-size="10.00" fill="#c6c5fe">scale/scale.ts</text>
</g>
<!-- mark/mark.ts&#45;&gt;scale/scale.ts -->
<g id="edge58" class="edge">
<title>mark/mark.ts&#45;&gt;scale/scale.ts</title>
<path fill="none" stroke="#757575" d="M763.71,-991.92C786.23,-972.41 837.16,-928.25 864.98,-904.13"/>
<polygon fill="#757575" stroke="#757575" points="867.55,-906.53 872.82,-897.34 862.97,-901.24 867.55,-906.53"/>
</g>
<!-- mark/marks/index.ts&#45;&gt;specification/specification.ts -->
<g id="edge68" class="edge">
<title>mark/marks/index.ts&#45;&gt;specification/specification.ts</title>
<path fill="none" stroke="#757575" d="M293.11,-840.56C301.33,-870.1 329.34,-958.7 382,-1010.64 511.91,-1138.78 568.03,-1191.64 750.5,-1191.64 750.5,-1191.64 750.5,-1191.64 1044,-1191.64 1360.17,-1191.64 1449.3,-1139.2 1724,-982.64 1760.67,-961.74 1795.28,-925.99 1814.01,-904.82"/>
<polygon fill="#757575" stroke="#757575" points="1816.69,-907.07 1820.6,-897.22 1811.41,-902.48 1816.69,-907.07"/>
</g>
<!-- mark/marks/index.ts&#45;&gt;mark/compile.ts -->
<g id="edge60" class="edge">
<title>mark/marks/index.ts&#45;&gt;mark/compile.ts</title>
<path fill="none" stroke="#757575" d="M342.69,-833.42C386.62,-835.09 451.06,-835.99 507,-830.64 522.93,-829.12 540.11,-826.24 555.59,-823.18"/>
<polygon fill="#757575" stroke="#757575" points="556.4,-826.59 565.5,-821.15 555,-819.73 556.4,-826.59"/>
</g>
<!-- mark/marks/index.ts&#45;&gt;mark/declare.ts -->
<g id="edge61" class="edge">
<title>mark/marks/index.ts&#45;&gt;mark/declare.ts</title>
<path fill="none" stroke="#757575" d="M298.67,-820.88C310.1,-806.95 331.12,-780.34 346,-755.64 365.08,-723.97 357.14,-708.01 382,-680.64 436.18,-621 522.88,-579.1 570.81,-559.05"/>
<polygon fill="#757575" stroke="#757575" points="572.22,-562.26 580.14,-555.22 569.56,-555.78 572.22,-562.26"/>
</g>
<!-- mark/marks/index.ts&#45;&gt;mark/mark.ts -->
<g id="edge62" class="edge">
<title>mark/marks/index.ts&#45;&gt;mark/mark.ts</title>
<path fill="none" stroke="#757575" d="M293.17,-840.43C301.22,-867.81 328.1,-945.37 382,-977.64 483.65,-1038.51 630.58,-1024.01 704.44,-1011.23"/>
<polygon fill="#757575" stroke="#757575" points="705.14,-1014.66 714.36,-1009.45 703.9,-1007.77 705.14,-1014.66"/>
</g>
<!-- mark/marks/index.ts&#45;&gt;platform/index.ts -->
<g id="edge67" class="edge">
<title>mark/marks/index.ts&#45;&gt;platform/index.ts</title>
<path fill="none" stroke="#757575" d="M294.72,-840.3C305.41,-863.37 335.98,-921.49 382,-944.64 459.06,-983.42 716.79,-973.61 829.95,-967.15"/>
<polygon fill="#757575" stroke="#757575" points="830.33,-970.64 840.11,-966.56 829.93,-963.65 830.33,-970.64"/>
</g>
<!-- mark/marks/marks.ts -->
<g id="node31" class="node">
<title>mark/marks/marks.ts</title>
<path fill="none" stroke="#c6c5fe" d="M493.17,-821.14C493.17,-821.14 395.83,-821.14 395.83,-821.14 392.67,-821.14 389.5,-817.98 389.5,-814.81 389.5,-814.81 389.5,-808.48 389.5,-808.48 389.5,-805.31 392.67,-802.14 395.83,-802.14 395.83,-802.14 493.17,-802.14 493.17,-802.14 496.33,-802.14 499.5,-805.31 499.5,-808.48 499.5,-808.48 499.5,-814.81 499.5,-814.81 499.5,-817.98 496.33,-821.14 493.17,-821.14"/>
<text text-anchor="middle" x="444.5" y="-809.14" font-family="Arial" font-size="10.00" fill="#c6c5fe">mark/marks/marks.ts</text>
</g>
<!-- mark/marks/index.ts&#45;&gt;mark/marks/marks.ts -->
<g id="edge63" class="edge">
<title>mark/marks/index.ts&#45;&gt;mark/marks/marks.ts</title>
<path fill="none" stroke="#757575" d="M342.73,-824.16C354.49,-822.7 367.12,-821.13 379.31,-819.61"/>
<polygon fill="#757575" stroke="#757575" points="379.93,-823.06 389.43,-818.36 379.07,-816.12 379.93,-823.06"/>
</g>
<!-- mark/marks/marks3d.ts -->
<g id="node32" class="node">
<title>mark/marks/marks3d.ts</title>
<path fill="none" stroke="#c6c5fe" d="M498.17,-784.14C498.17,-784.14 390.83,-784.14 390.83,-784.14 387.67,-784.14 384.5,-780.98 384.5,-777.81 384.5,-777.81 384.5,-771.48 384.5,-771.48 384.5,-768.31 387.67,-765.14 390.83,-765.14 390.83,-765.14 498.17,-765.14 498.17,-765.14 501.33,-765.14 504.5,-768.31 504.5,-771.48 504.5,-771.48 504.5,-777.81 504.5,-777.81 504.5,-780.98 501.33,-784.14 498.17,-784.14"/>
<text text-anchor="middle" x="444.5" y="-772.14" font-family="Arial" font-size="10.00" fill="#c6c5fe">mark/marks/marks3d.ts</text>
</g>
<!-- mark/marks/index.ts&#45;&gt;mark/marks/marks3d.ts -->
<g id="edge64" class="edge">
<title>mark/marks/index.ts&#45;&gt;mark/marks/marks3d.ts</title>
<path fill="none" stroke="#757575" d="M312.49,-821.14C330.9,-813.33 357.95,-802.2 382,-793.64 388.08,-791.48 394.55,-789.32 400.92,-787.29"/>
<polygon fill="#757575" stroke="#757575" points="402.28,-790.53 410.77,-784.19 400.19,-783.85 402.28,-790.53"/>
</g>
<!-- mark/marks/text.ts -->
<g id="node33" class="node">
<title>mark/marks/text.ts</title>
<path fill="none" stroke="#c6c5fe" d="M487.67,-935.14C487.67,-935.14 401.33,-935.14 401.33,-935.14 398.17,-935.14 395,-931.98 395,-928.81 395,-928.81 395,-922.48 395,-922.48 395,-919.31 398.17,-916.14 401.33,-916.14 401.33,-916.14 487.67,-916.14 487.67,-916.14 490.83,-916.14 494,-919.31 494,-922.48 494,-922.48 494,-928.81 494,-928.81 494,-931.98 490.83,-935.14 487.67,-935.14"/>
<text text-anchor="middle" x="444.5" y="-923.14" font-family="Arial" font-size="10.00" fill="#c6c5fe">mark/marks/text.ts</text>
</g>
<!-- mark/marks/index.ts&#45;&gt;mark/marks/text.ts -->
<g id="edge65" class="edge">
<title>mark/marks/index.ts&#45;&gt;mark/marks/text.ts</title>
<path fill="none" stroke="#757575" d="M306.01,-840.28C332.7,-856.85 387.5,-890.87 419.26,-910.59"/>
<polygon fill="#757575" stroke="#757575" points="417.6,-913.68 427.95,-915.99 421.3,-907.74 417.6,-913.68"/>
</g>
<!-- mark/shaders/shaders.ts -->
<g id="node34" class="node">
<title>mark/shaders/shaders.ts</title>
<path fill="none" stroke="#c6c5fe" d="M500.67,-708.14C500.67,-708.14 388.33,-708.14 388.33,-708.14 385.17,-708.14 382,-704.98 382,-701.81 382,-701.81 382,-695.48 382,-695.48 382,-692.31 385.17,-689.14 388.33,-689.14 388.33,-689.14 500.67,-689.14 500.67,-689.14 503.83,-689.14 507,-692.31 507,-695.48 507,-695.48 507,-701.81 507,-701.81 507,-704.98 503.83,-708.14 500.67,-708.14"/>
<text text-anchor="middle" x="444.5" y="-696.14" font-family="Arial" font-size="10.00" fill="#c6c5fe">mark/shaders/shaders.ts</text>
</g>
<!-- mark/marks/index.ts&#45;&gt;mark/shaders/shaders.ts -->
<g id="edge66" class="edge">
<title>mark/marks/index.ts&#45;&gt;mark/shaders/shaders.ts</title>
<path fill="none" stroke="#757575" d="M302,-820.72C328.16,-798.16 392.32,-742.8 424.48,-715.05"/>
<polygon fill="#757575" stroke="#757575" points="427,-717.5 432.28,-708.32 422.42,-712.2 427,-717.5"/>
</g>
<!-- mark/shaders/index.ts&#45;&gt;mark/compile.ts -->
<g id="edge77" class="edge">
<title>mark/shaders/index.ts&#45;&gt;mark/compile.ts</title>
<path fill="none" stroke="#757575" d="M346.13,-732.66C391.25,-731.54 455.58,-734.81 507,-756.64 526.44,-764.9 524.88,-776.81 543,-787.64 549.8,-791.71 557.42,-795.31 564.93,-798.41"/>
<polygon fill="#757575" stroke="#757575" points="563.73,-801.7 574.32,-802.06 566.27,-795.18 563.73,-801.7"/>
</g>
<!-- mark/shaders/index.ts&#45;&gt;mark/shaders/shaders.ts -->
<g id="edge78" class="edge">
<title>mark/shaders/index.ts&#45;&gt;mark/shaders/shaders.ts</title>
<path fill="none" stroke="#757575" d="M329.11,-727.05C349.21,-722.06 373.98,-715.91 395.32,-710.61"/>
<polygon fill="#757575" stroke="#757575" points="396.31,-713.97 405.17,-708.16 394.62,-707.18 396.31,-713.97"/>
</g>
<!-- platform/index.ts&#45;&gt;specification/index.ts -->
<g id="edge84" class="edge">
<title>platform/index.ts&#45;&gt;specification/index.ts</title>
<path fill="none" stroke="#757575" d="M914.75,-954.09C997.89,-925.65 1243.81,-835.74 1419,-711.64 1448.83,-690.51 1477.48,-658.83 1493.88,-639.24"/>
<polygon fill="#757575" stroke="#757575" points="1496.67,-641.36 1500.32,-631.41 1491.27,-636.91 1496.67,-641.36"/>
</g>
<!-- platform/index.ts&#45;&gt;binding/binding.ts -->
<g id="edge81" class="edge">
<title>platform/index.ts&#45;&gt;binding/binding.ts</title>
<path fill="none" stroke="#757575" d="M929.87,-963.64C947.51,-963.64 968.05,-963.64 986.7,-963.64"/>
<polygon fill="#757575" stroke="#757575" points="986.83,-967.14 996.83,-963.64 986.83,-960.14 986.83,-967.14"/>
</g>
<!-- platform/index.ts&#45;&gt;common/index.ts -->
<g id="edge82" class="edge">
<title>platform/index.ts&#45;&gt;common/index.ts</title>
<path fill="none" stroke="#757575" d="M901.94,-973.15C959.27,-1006.43 1161.24,-1115.64 1342.5,-1115.64 1342.5,-1115.64 1342.5,-1115.64 1662.5,-1115.64 1776.62,-1115.64 1829.73,-1106.34 1899,-1015.64 1971.13,-921.21 1979.04,-526.51 1979.9,-433.39"/>
<polygon fill="#757575" stroke="#757575" points="1983.4,-433.17 1979.97,-423.14 1976.4,-433.12 1983.4,-433.17"/>
</g>
<!-- platform/index.ts&#45;&gt;mark/mark.ts -->
<g id="edge83" class="edge">
<title>platform/index.ts&#45;&gt;mark/mark.ts</title>
<path fill="none" stroke="#757575" d="M867.04,-973.25C849.81,-980.09 822.37,-988.61 798.67,-994.78"/>
<polygon fill="#757575" stroke="#757575" points="797.62,-991.43 788.78,-997.27 799.33,-998.22 797.62,-991.43"/>
</g>
<!-- scale/scale.ts&#45;&gt;binding/binding.ts -->
<g id="edge87" class="edge">
<title>scale/scale.ts&#45;&gt;binding/binding.ts</title>
<path fill="none" stroke="#757575" d="M905.76,-897.27C932.95,-910.52 982.09,-934.46 1013.33,-949.67"/>
<polygon fill="#757575" stroke="#757575" points="1011.88,-952.86 1022.4,-954.1 1014.95,-946.57 1011.88,-952.86"/>
</g>
<!-- scale/scale.ts&#45;&gt;specification/specification.ts -->
<g id="edge88" class="edge">
<title>scale/scale.ts&#45;&gt;specification/specification.ts</title>
<path fill="none" stroke="#757575" d="M923.64,-890.5C1041.75,-898.99 1415.48,-922.22 1724,-901.64 1734.91,-900.92 1746.41,-899.77 1757.64,-898.43"/>
<polygon fill="#757575" stroke="#757575" points="1758.36,-901.87 1767.85,-897.16 1757.5,-894.92 1758.36,-901.87"/>
</g>
<!-- mark/marks/marks.ts&#45;&gt;mark/compile.ts -->
<g id="edge69" class="edge">
<title>mark/marks/marks.ts&#45;&gt;mark/compile.ts</title>
<path fill="none" stroke="#757575" d="M499.67,-811.64C516.86,-811.64 535.84,-811.64 552.92,-811.64"/>
<polygon fill="#757575" stroke="#757575" points="553.27,-815.14 563.27,-811.64 553.27,-808.14 553.27,-815.14"/>
</g>
<!-- mark/marks/marks3d.ts&#45;&gt;mark/compile.ts -->
<g id="edge70" class="edge">
<title>mark/marks/marks3d.ts&#45;&gt;mark/compile.ts</title>
<path fill="none" stroke="#757575" d="M486.7,-784.17C507.34,-788.94 532.52,-794.77 554.38,-799.82"/>
<polygon fill="#757575" stroke="#757575" points="553.63,-803.24 564.16,-802.08 555.2,-796.42 553.63,-803.24"/>
</g>
<!-- mark/marks/text.ts&#45;&gt;binding/index.ts -->
<g id="edge71" class="edge">
<title>mark/marks/text.ts&#45;&gt;binding/index.ts</title>
<path fill="none" stroke="#757575" d="M460.17,-935.16C478.81,-946.91 512.25,-966.9 543,-979.64 642.19,-1020.74 764.39,-1051.31 832.28,-1066.63"/>
<polygon fill="#757575" stroke="#757575" points="831.78,-1070.1 842.3,-1068.87 833.3,-1063.27 831.78,-1070.1"/>
</g>
<!-- mark/marks/text.ts&#45;&gt;mark/compile.ts -->
<g id="edge72" class="edge">
<title>mark/marks/text.ts&#45;&gt;mark/compile.ts</title>
<path fill="none" stroke="#757575" d="M455,-916.12C477.48,-893.66 532.84,-838.78 543,-832.64 547.84,-829.72 553.14,-827.15 558.54,-824.89"/>
<polygon fill="#757575" stroke="#757575" points="560.19,-828.01 568.29,-821.18 557.7,-821.47 560.19,-828.01"/>
</g>
<!-- mark/marks/text.ts&#45;&gt;mark/mark.ts -->
<g id="edge73" class="edge">
<title>mark/marks/text.ts&#45;&gt;mark/mark.ts</title>
<path fill="none" stroke="#757575" d="M483.82,-935.19C539.93,-949.17 644.3,-975.18 704.49,-990.18"/>
<polygon fill="#757575" stroke="#757575" points="703.92,-993.64 714.47,-992.67 705.61,-986.85 703.92,-993.64"/>
</g>
<!-- mark/marks/text.ts&#45;&gt;platform/index.ts -->
<g id="edge75" class="edge">
<title>mark/marks/text.ts&#45;&gt;platform/index.ts</title>
<path fill="none" stroke="#757575" d="M494.24,-927.56C562.22,-930.56 689.28,-937.33 797,-949.64 807.82,-950.88 819.36,-952.51 830.37,-954.22"/>
<polygon fill="#757575" stroke="#757575" points="829.87,-957.69 840.29,-955.81 830.97,-950.78 829.87,-957.69"/>
</g>
<!-- mark/marks/textCache.ts -->
<g id="node35" class="node">
<title>mark/marks/textCache.ts</title>
<path fill="none" stroke="#cfffac" d="M663.67,-897.14C663.67,-897.14 549.33,-897.14 549.33,-897.14 546.17,-897.14 543,-893.98 543,-890.81 543,-890.81 543,-884.48 543,-884.48 543,-881.31 546.17,-878.14 549.33,-878.14 549.33,-878.14 663.67,-878.14 663.67,-878.14 666.83,-878.14 670,-881.31 670,-884.48 670,-884.48 670,-890.81 670,-890.81 670,-893.98 666.83,-897.14 663.67,-897.14"/>
<text text-anchor="middle" x="606.5" y="-885.14" font-family="Arial" font-size="10.00" fill="#cfffac">mark/marks/textCache.ts</text>
</g>
<!-- mark/marks/text.ts&#45;&gt;mark/marks/textCache.ts -->
<g id="edge74" class="edge">
<title>mark/marks/text.ts&#45;&gt;mark/marks/textCache.ts</title>
<path fill="none" stroke="#757575" d="M485.87,-916.05C506.99,-911.04 533.03,-904.86 555.42,-899.54"/>
<polygon fill="#757575" stroke="#757575" points="556.49,-902.88 565.42,-897.16 554.88,-896.07 556.49,-902.88"/>
</g>
<!-- scale/index.ts -->
<g id="node36" class="node">
<title>scale/index.ts</title>
<path fill="none" stroke="#c6c5fe" d="M638.67,-860.14C638.67,-860.14 574.33,-860.14 574.33,-860.14 571.17,-860.14 568,-856.98 568,-853.81 568,-853.81 568,-847.48 568,-847.48 568,-844.31 571.17,-841.14 574.33,-841.14 574.33,-841.14 638.67,-841.14 638.67,-841.14 641.83,-841.14 645,-844.31 645,-847.48 645,-847.48 645,-853.81 645,-853.81 645,-856.98 641.83,-860.14 638.67,-860.14"/>
<text text-anchor="middle" x="606.5" y="-848.14" font-family="Arial" font-size="10.00" fill="#c6c5fe">scale/index.ts</text>
</g>
<!-- mark/marks/text.ts&#45;&gt;scale/index.ts -->
<g id="edge76" class="edge">
<title>mark/marks/text.ts&#45;&gt;scale/index.ts</title>
<path fill="none" stroke="#757575" d="M476.23,-916.09C486.39,-912.3 497.52,-907.45 507,-901.64 525.26,-890.47 524.33,-880.11 543,-869.64 547.76,-866.97 552.94,-864.64 558.21,-862.6"/>
<polygon fill="#757575" stroke="#757575" points="559.46,-865.87 567.73,-859.26 557.14,-859.27 559.46,-865.87"/>
</g>
<!-- mark/shaders/shaders.ts&#45;&gt;specification/specification.ts -->
<g id="edge80" class="edge">
<title>mark/shaders/shaders.ts&#45;&gt;specification/specification.ts</title>
<path fill="none" stroke="#757575" d="M468.37,-708.29C518.5,-728.55 642.26,-773.64 750.5,-773.64 750.5,-773.64 750.5,-773.64 1510,-773.64 1626.38,-773.64 1753.43,-841.95 1804.9,-872.82"/>
<polygon fill="#757575" stroke="#757575" points="1803.25,-875.91 1813.61,-878.12 1806.89,-869.93 1803.25,-875.91"/>
</g>
<!-- mark/shaders/shaders.ts&#45;&gt;mark/compile.ts -->
<g id="edge79" class="edge">
<title>mark/shaders/shaders.ts&#45;&gt;mark/compile.ts</title>
<path fill="none" stroke="#757575" d="M482.31,-708.26C491.07,-711.77 499.93,-716.46 507,-722.64 531.86,-744.38 518.08,-765.97 543,-787.64 547.72,-791.75 553.22,-795.19 558.96,-798.06"/>
<polygon fill="#757575" stroke="#757575" points="557.54,-801.26 568.1,-802.12 560.38,-794.86 557.54,-801.26"/>
</g>
<!-- scale/index.ts&#45;&gt;scale/scale.ts -->
<g id="edge85" class="edge">
<title>scale/index.ts&#45;&gt;scale/scale.ts</title>
<path fill="none" stroke="#757575" d="M645.08,-855.67C694.6,-862.3 781.76,-873.96 836,-881.22"/>
<polygon fill="#757575" stroke="#757575" points="835.68,-884.71 846.06,-882.57 836.61,-877.77 835.68,-884.71"/>
</g>
<!-- scale/scales.ts -->
<g id="node37" class="node">
<title>scale/scales.ts</title>
<path fill="none" stroke="#c6c5fe" d="M786.67,-707.14C786.67,-707.14 716.33,-707.14 716.33,-707.14 713.17,-707.14 710,-703.98 710,-700.81 710,-700.81 710,-694.48 710,-694.48 710,-691.31 713.17,-688.14 716.33,-688.14 716.33,-688.14 786.67,-688.14 786.67,-688.14 789.83,-688.14 793,-691.31 793,-694.48 793,-694.48 793,-700.81 793,-700.81 793,-703.98 789.83,-707.14 786.67,-707.14"/>
<text text-anchor="middle" x="751.5" y="-695.14" font-family="Arial" font-size="10.00" fill="#c6c5fe">scale/scales.ts</text>
</g>
<!-- scale/index.ts&#45;&gt;scale/scales.ts -->
<g id="edge86" class="edge">
<title>scale/index.ts&#45;&gt;scale/scales.ts</title>
<path fill="none" stroke="#757575" d="M645.03,-843.4C653.84,-840.46 662.76,-836.36 670,-830.64 708.51,-800.25 732.92,-745.96 743.84,-717.04"/>
<polygon fill="#757575" stroke="#757575" points="747.25,-717.89 747.36,-707.29 740.67,-715.51 747.25,-717.89"/>
</g>
<!-- scale/scales.ts&#45;&gt;specification/index.ts -->
<g id="edge94" class="edge">
<title>scale/scales.ts&#45;&gt;specification/index.ts</title>
<path fill="none" stroke="#757575" d="M793.03,-688.93C848.82,-677.71 952.53,-659.64 1042,-659.64 1042,-659.64 1042,-659.64 1191.5,-659.64 1281.8,-659.64 1385.57,-644.21 1448.95,-633.01"/>
<polygon fill="#757575" stroke="#757575" points="1449.92,-636.39 1459.15,-631.18 1448.69,-629.5 1449.92,-636.39"/>
</g>
<!-- scale/scales.ts&#45;&gt;binding/binding.ts -->
<g id="edge89" class="edge">
<title>scale/scales.ts&#45;&gt;binding/binding.ts</title>
<path fill="none" stroke="#757575" d="M763.15,-707.43C806.42,-747.19 969.42,-896.96 1024.04,-947.14"/>
<polygon fill="#757575" stroke="#757575" points="1021.83,-949.86 1031.56,-954.05 1026.57,-944.71 1021.83,-949.86"/>
</g>
<!-- scale/scales.ts&#45;&gt;common/index.ts -->
<g id="edge90" class="edge">
<title>scale/scales.ts&#45;&gt;common/index.ts</title>
<path fill="none" stroke="#757575" d="M793,-701.12C906.03,-710.5 1234.51,-735.64 1508,-735.64 1508,-735.64 1508,-735.64 1662.5,-735.64 1833.88,-735.64 1943.84,-501.51 1972.52,-432.54"/>
<polygon fill="#757575" stroke="#757575" points="1975.76,-433.86 1976.29,-423.28 1969.28,-431.22 1975.76,-433.86"/>
</g>
<!-- scale/scales.ts&#45;&gt;compiler/compiler.ts -->
<g id="edge91" class="edge">
<title>scale/scales.ts&#45;&gt;compiler/compiler.ts</title>
<path fill="none" stroke="#757575" d="M778.5,-687.91C785.3,-684.31 792.09,-679.61 797,-673.64 805.66,-663.12 860.71,-474.28 878.48,-412.81"/>
<polygon fill="#757575" stroke="#757575" points="881.85,-413.76 881.26,-403.18 875.12,-411.82 881.85,-413.76"/>
</g>
<!-- scale/scales.ts&#45;&gt;compiler/parser.ts -->
<g id="edge92" class="edge">
<title>scale/scales.ts&#45;&gt;compiler/parser.ts</title>
<path fill="none" stroke="#757575" d="M767.33,-688.05C783.47,-677.6 810.06,-660.42 833,-645.64 1020.29,-525.05 1246.67,-380.01 1319.06,-333.65"/>
<polygon fill="#757575" stroke="#757575" points="1320.95,-336.6 1327.49,-328.26 1317.18,-330.7 1320.95,-336.6"/>
</g>
<!-- scale/scales.ts&#45;&gt;scale/scale.ts -->
<g id="edge93" class="edge">
<title>scale/scales.ts&#45;&gt;scale/scale.ts</title>
<path fill="none" stroke="#757575" d="M759.2,-707.33C780.04,-737.43 843.92,-829.73 871.31,-869.31"/>
<polygon fill="#757575" stroke="#757575" points="868.58,-871.52 877.15,-877.75 874.34,-867.54 868.58,-871.52"/>
</g>
<!-- specification/construct.ts&#45;&gt;specification/specification.ts -->
<g id="edge96" class="edge">
<title>specification/construct.ts&#45;&gt;specification/specification.ts</title>
<path fill="none" stroke="#757575" d="M1681.14,-631.21C1694.47,-638.81 1712.09,-650.49 1724,-664.64 1778.32,-729.22 1811,-826.77 1823.11,-868.07"/>
<polygon fill="#757575" stroke="#757575" points="1819.76,-869.07 1825.87,-877.73 1826.49,-867.15 1819.76,-869.07"/>
</g>
<!-- specification/construct.ts&#45;&gt;intrinsics/index.ts -->
<g id="edge95" class="edge">
<title>specification/construct.ts&#45;&gt;intrinsics/index.ts</title>
<path fill="none" stroke="#757575" d="M1669.01,-612C1693.9,-575.11 1783.35,-442.55 1816.25,-393.8"/>
<polygon fill="#757575" stroke="#757575" points="1819.35,-395.47 1822.04,-385.22 1813.54,-391.55 1819.35,-395.47"/>
</g>
<!-- stardust&#45;core.ts -->
<g id="node39" class="node">
<title>stardust&#45;core.ts</title>
<path fill="none" stroke="#c6c5fe" d="M78.67,-858.14C78.67,-858.14 6.33,-858.14 6.33,-858.14 3.17,-858.14 0,-854.98 0,-851.81 0,-851.81 0,-845.48 0,-845.48 0,-842.31 3.17,-839.14 6.33,-839.14 6.33,-839.14 78.67,-839.14 78.67,-839.14 81.83,-839.14 85,-842.31 85,-845.48 85,-845.48 85,-851.81 85,-851.81 85,-854.98 81.83,-858.14 78.67,-858.14"/>
<text text-anchor="middle" x="42.5" y="-846.14" font-family="Arial" font-size="10.00" fill="#c6c5fe">stardust&#45;core.ts</text>
</g>
<!-- stardust&#45;core.ts&#45;&gt;specification/index.ts -->
<g id="edge106" class="edge">
<title>stardust&#45;core.ts&#45;&gt;specification/index.ts</title>
<path fill="none" stroke="#757575" d="M49.49,-838.79C70.05,-806.01 141.57,-700.58 233,-661.64 386.19,-596.4 438.99,-621.64 605.5,-621.64 605.5,-621.64 605.5,-621.64 1191.5,-621.64 1279.2,-621.64 1380.58,-621.64 1444.48,-621.64"/>
<polygon fill="#757575" stroke="#757575" points="1444.8,-625.14 1454.8,-621.64 1444.8,-618.14 1444.8,-625.14"/>
</g>
<!-- stardust&#45;core.ts&#45;&gt;common/index.ts -->
<g id="edge100" class="edge">
<title>stardust&#45;core.ts&#45;&gt;common/index.ts</title>
<path fill="none" stroke="#757575" d="M43.41,-858.21C43.47,-899.2 48.44,-1062.56 121,-1165.64 171.17,-1236.92 201.34,-1267.64 288.5,-1267.64 288.5,-1267.64 288.5,-1267.64 1662.5,-1267.64 1781.39,-1267.64 1832.1,-1240.93 1899,-1142.64 1980.67,-1022.66 1981.12,-538.33 1980.24,-433.65"/>
<polygon fill="#757575" stroke="#757575" points="1983.74,-433.49 1980.14,-423.52 1976.74,-433.56 1983.74,-433.49"/>
</g>
<!-- stardust&#45;core.ts&#45;&gt;binding/index.ts -->
<g id="edge99" class="edge">
<title>stardust&#45;core.ts&#45;&gt;binding/index.ts</title>
<path fill="none" stroke="#757575" d="M44.8,-858.44C53.3,-918.08 106.45,-1229.64 288.5,-1229.64 288.5,-1229.64 288.5,-1229.64 445.5,-1229.64 612.15,-1229.64 795.74,-1130.43 860.13,-1092.31"/>
<polygon fill="#757575" stroke="#757575" points="861.96,-1095.29 868.74,-1087.15 858.37,-1089.29 861.96,-1095.29"/>
</g>
<!-- stardust&#45;core.ts&#45;&gt;intrinsics/index.ts -->
<g id="edge102" class="edge">
<title>stardust&#45;core.ts&#45;&gt;intrinsics/index.ts</title>
<path fill="none" stroke="#757575" d="M44.41,-839.05C52.98,-751.19 123.03,-89.64 288.5,-89.64 288.5,-89.64 288.5,-89.64 886,-89.64 1124.29,-89.64 1191.94,-75.36 1419,-147.64 1580.18,-198.96 1749.61,-317.27 1807.62,-359.94"/>
<polygon fill="#757575" stroke="#757575" points="1805.83,-362.98 1815.95,-366.12 1810,-357.35 1805.83,-362.98"/>
</g>
<!-- stardust&#45;core.ts&#45;&gt;compiler/index.ts -->
<g id="edge101" class="edge">
<title>stardust&#45;core.ts&#45;&gt;compiler/index.ts</title>
<path fill="none" stroke="#757575" d="M43.92,-839.06C45.99,-801.36 57.81,-660.96 121,-570.64 173.5,-495.61 196.92,-450.64 288.5,-450.64 288.5,-450.64 288.5,-450.64 445.5,-450.64 541.8,-450.64 652.33,-422.85 710.26,-406.08"/>
<polygon fill="#757575" stroke="#757575" points="711.51,-409.36 720.11,-403.18 709.53,-402.64 711.51,-409.36"/>
</g>
<!-- stardust&#45;core.ts&#45;&gt;mark/index.ts -->
<g id="edge103" class="edge">
<title>stardust&#45;core.ts&#45;&gt;mark/index.ts</title>
<path fill="none" stroke="#757575" d="M58.47,-838.84C77.95,-826.08 112.18,-803.65 134.98,-788.72"/>
<polygon fill="#757575" stroke="#757575" points="136.94,-791.62 143.39,-783.21 133.11,-785.77 136.94,-791.62"/>
</g>
<!-- stardust&#45;core.ts&#45;&gt;platform/index.ts -->
<g id="edge104" class="edge">
<title>stardust&#45;core.ts&#45;&gt;platform/index.ts</title>
<path fill="none" stroke="#757575" d="M46,-858.45C59.97,-910.65 133.3,-1153.64 288.5,-1153.64 288.5,-1153.64 288.5,-1153.64 445.5,-1153.64 619.91,-1153.64 803.55,-1025.54 863.67,-979.71"/>
<polygon fill="#757575" stroke="#757575" points="866.16,-982.21 871.93,-973.33 861.88,-976.67 866.16,-982.21"/>
</g>
<!-- stardust&#45;core.ts&#45;&gt;scale/index.ts -->
<g id="edge105" class="edge">
<title>stardust&#45;core.ts&#45;&gt;scale/index.ts</title>
<path fill="none" stroke="#757575" d="M85.27,-848.9C123.67,-849.12 182.17,-849.44 233,-849.64 349.57,-850.11 486.65,-850.41 557.57,-850.55"/>
<polygon fill="#757575" stroke="#757575" points="557.95,-854.06 567.96,-850.57 557.97,-847.06 557.95,-854.06"/>
</g>
</g>
</svg>
